#!OML:ASF E:\emotionWalksFemale\Project 1\Capture day 1\Session 1\Female1.ASF
:FULLY-SPECIFIED
:DEGREES
382
root 9.1522 16.9986 21.3256 -31.3313 -84.5266 -321.556
lowerback 6.30117 -1.94364 2.26656
upperback -4.76037 -2.35101 0.978165
thorax -8.61375 -1.2689 0.0881249
lowerneck -9.44266 0.423984 -3.43684
upperneck 7.2669 1.10411 -1.0101
head 4.0706 0.38553 0.345974
rclavicle -3.72721e-015 -1.59028e-014
rhumerus -67.2551 18.5928 -92.153
rradius 35.3271
rwrist 20.2723
rhand 10.2145 -50.6965
rfingers 7.12502
rthumb -144.67 -257.175
lclavicle -3.72721e-015 -1.59028e-014
lhumerus -36.4166 -8.03452 88.6746
lradius 29.9318
lwrist -26.5166
lhand 10.6234 -32.0252
lfingers 7.12502
lthumb 35.7174 -5.63972
rfemur -14.1092 18.6673 20.6317
rtibia 24.709
rfoot 16.3453 -20.7723
rtoes 9.40976
lfemur -10.7558 -6.35699 -27.9006
ltibia 20.3713
lfoot 13.3419 9.77421
ltoes -27.3689
383
root 9.18634 16.7864 21.3062 -18.4766 -84.1326 -334.289
lowerback 6.54737 -1.6705 3.26964
upperback -4.82245 -1.86823 1.02917
thorax -8.854 -1.09485 -0.475811
lowerneck -9.13529 -0.168823 -3.56869
upperneck 6.80993 0.284251 -0.75408
head 3.85819 -0.000466099 0.400986
rclavicle -8.28684e-015 1.43125e-014
rhumerus -67.6417 18.0819 -92.1624
rradius 35.8979
rwrist 19.0981
rhand 10.303 -50.9534
rfingers 7.12502
rthumb -144.586 -257.412
lclavicle -8.28684e-015 1.43125e-014
lhumerus -35.9855 -8.46318 88.5198
lradius 30.2301
lwrist -25.9908
lhand 8.94397 -33.0598
lfingers 7.12502
lthumb 34.1241 -6.30363
rfemur -14.1783 17.9412 22.0115
rtibia 26.1276
rfoot 12.9118 -20.303
rtoes 2.30822
lfemur -11.2511 -5.49635 -27.0181
ltibia 21.728
lfoot 9.53716 7.4211
ltoes -26.2151
384
root 9.21535 16.5724 21.2774 -14.3312 -82.6601 -338.753
lowerback 7.13582 -1.75588 3.11756
upperback -4.88333 -1.96964 1.03905
thorax -9.26542 -1.13607 -0.344415
lowerneck -8.01991 -0.593203 -4.10236
upperneck 5.97224 -0.312945 -0.427129
head 3.35905 -0.278047 0.565297
rclavicle 1.26166e-014 1.59028e-014
rhumerus -68.3198 18.2533 -92.0972
rradius 36.5013
rwrist 17.9575
rhand 9.77441 -50.4596
rfingers 7.12502
rthumb -145.088 -257.036
lclavicle 1.26166e-014 1.59028e-014
lhumerus -35.8494 -8.14797 88.3871
lradius 30.4637
lwrist -25.7285
lhand 6.94078 -34.4768
lfingers 7.12502
lthumb 32.2193 -7.31505
rfemur -13.6843 15.0504 22.5764
rtibia 27.5102
rfoot 8.86084 -18.2054
rtoes -8.45409
lfemur -11.383 -4.54418 -27.1376
ltibia 23.4161
lfoot 5.64766 4.29084
ltoes -26.6781
385
root 9.24503 16.3644 21.2439 -11.5425 -81.2285 -341.943
lowerback 7.71804 -1.75822 2.98699
upperback -4.7294 -1.96741 0.944651
thorax -9.43923 -1.12581 -0.357331
lowerneck -7.45562 -1.06683 -4.22597
upperneck 5.25727 -0.984 -0.235995
head 3.02052 -0.592468 0.613947
rclavicle -2.77802e-014 -1.19271e-014
rhumerus -67.8539 17.3843 -91.1096
rradius 36.3191
rwrist 18.246
rhand 9.73075 -50.4696
rfingers 7.12502
rthumb -145.129 -257.056
lclavicle -2.77802e-014 -1.19271e-014
lhumerus -35.1898 -8.22005 88.0561
lradius 30.5813
lwrist -25.015
lhand 5.40742 -35.9127
lfingers 7.12502
lthumb 30.7585 -8.4655
rfemur -13.1281 13.7699 23.0002
rtibia 28.8391
rfoot 2.88983 -18.3112
rtoes -9.45008
lfemur -11.4781 -3.64067 -27.1313
ltibia 25.0812
lfoot 1.19373 1.27387
ltoes -32.219
386
root 9.26586 16.1756 21.2067 -9.36119 -79.7985 -344.532
lowerback 8.23724 -1.65492 2.97717
upperback -4.51322 -1.82518 0.709108
thorax -9.51211 -1.0593 -0.615549
lowerneck -7.04474 -1.62205 -3.96524
upperneck 4.56509 -1.78464 -0.139491
head 2.72192 -0.969415 0.562837
rclavicle 3.85394e-014 1.90833e-014
rhumerus -67.0656 15.8399 -89.9018
rradius 35.8756
rwrist 18.8656
rhand 9.35504 -50.1341
rfingers 7.12502
rthumb -145.486 -256.802
lclavicle 3.85394e-014 1.90833e-014
lhumerus -34.4542 -8.66594 87.657
lradius 30.702
lwrist -24.3263
lhand 3.44428 -37.551
lfingers 7.12502
lthumb 28.885 -9.76753
rfemur -12.7555 12.6864 23.2333
rtibia 30.1686
rfoot -3.01162 -17.8087
rtoes -6.44281
lfemur -11.5004 -3.06592 -26.9579
ltibia 26.4358
lfoot -3.51563 -0.997563
ltoes -27.8081
387
root 9.28226 16.0084 21.1733 -7.52378 -78.3352 -346.745
lowerback 8.83424 -1.76586 2.88206
upperback -4.41479 -1.95344 0.79852
thorax -9.75512 -1.11005 -0.429182
lowerneck -6.38139 -1.94536 -4.39404
upperneck 3.73881 -2.23474 0.139013
head 2.3424 -1.17943 0.712271
rclavicle -1.61513e-014 3.18055e-014
rhumerus -66.5912 15.515 -88.7968
rradius 35.6581
rwrist 19.2589
rhand 9.33524 -49.0341
rfingers 7.12502
rthumb -145.504 -255.707
lclavicle -1.61513e-014 3.18055e-014
lhumerus -34.2395 -7.91974 87.5457
lradius 30.7792
lwrist -24.7507
lhand -1.00018 -39.0786
lfingers 7.12502
lthumb 24.632 -10.6436
rfemur -12.5214 11.4548 23.3649
rtibia 31.2693
rfoot -6.61963 -16.8694
rtoes -8.42614
lfemur -11.6806 -2.92079 -26.7069
ltibia 27.8488
lfoot -8.0191 -2.74689
ltoes -28.5257
